<?xml version="1.0" standalone="no"?>
<!DOCTYPE svg PUBLIC "-//W3C//DTD SVG 20010904//EN"
 "http://www.w3.org/TR/2001/REC-SVG-20010904/DTD/svg10.dtd">
<svg version="1.0" xmlns="http://www.w3.org/2000/svg"
 width="1280.000000pt" height="806.000000pt" viewBox="0 0 1280.000000 806.000000"
 preserveAspectRatio="xMidYMid meet">
<metadata>
Created by potrace 1.15, written by Peter Selinger 2001-2017
</metadata>
<g transform="translate(0.000000,806.000000) scale(0.100000,-0.100000)"
fill="#ffffff" stroke="none">
<path d="M12738 8025 c-186 -122 -672 -369 -914 -465 -491 -194 -859 -270
-1314 -271 -288 -1 -455 21 -746 97 -193 50 -251 55 -280 23 -17 -19 -20 -45
-26 -288 -7 -292 -17 -411 -54 -636 -195 -1182 -957 -2260 -2198 -3107 -130
-89 -185 -116 -173 -85 3 8 111 154 240 324 129 169 240 319 247 333 7 13 13
48 13 77 0 112 -111 271 -314 449 -129 113 -430 356 -435 351 -2 -2 -31 -124
-64 -272 -33 -148 -61 -270 -63 -271 -2 -2 -30 1 -63 6 -82 14 -258 12 -308
-2 -50 -15 -128 -91 -181 -177 l-38 -61 -66 59 c-36 32 -136 120 -221 195
l-155 137 -8 -148 c-5 -81 -9 -254 -10 -383 -2 -214 0 -242 20 -318 43 -161
145 -309 240 -350 93 -39 186 -47 547 -46 187 1 333 -2 325 -6 -51 -29 -467
-102 -689 -121 -173 -15 -614 -6 -770 16 -553 77 -1064 259 -1606 571 -162 94
-479 307 -647 434 -284 216 -417 300 -477 300 -56 0 -111 -61 -236 -260 -175
-280 -316 -452 -595 -725 -343 -335 -816 -697 -1396 -1069 -112 -72 -201 -131
-200 -132 1 -2 29 6 62 17 82 27 321 85 430 104 495 86 901 2 1222 -252 100
-79 249 -229 385 -388 67 -77 127 -146 134 -154 11 -12 26 -7 101 37 296 170
608 298 863 353 88 19 136 23 295 23 163 1 202 -2 275 -21 178 -45 323 -120
487 -251 130 -105 273 -261 511 -560 102 -127 189 -232 194 -232 4 0 8 7 8 15
0 27 40 121 78 183 207 341 692 461 1392 346 284 -47 604 -138 895 -254 72
-28 132 -54 134 -56 2 -2 -34 -43 -79 -91 -103 -109 -160 -185 -203 -272 -30
-61 -32 -73 -32 -166 0 -94 2 -105 34 -169 43 -88 151 -203 289 -306 141 -105
148 -109 173 -83 l20 20 -41 64 c-138 212 -204 449 -180 644 11 91 38 187 76
272 l23 54 113 -57 c311 -156 538 -327 601 -454 l25 -50 6 37 c3 21 8 88 11
148 7 130 40 461 56 570 l12 77 55 -54 c143 -139 227 -341 252 -608 6 -67 16
-117 23 -122 29 -19 46 -7 65 45 108 288 130 499 68 635 -53 115 -171 198
-350 244 -44 12 -83 23 -85 24 -5 4 38 224 69 353 250 1021 697 1421 1325
1186 49 -19 91 -32 93 -30 3 2 -1 75 -7 162 -15 199 -16 691 -2 843 62 667
245 1053 602 1268 147 88 288 134 625 201 111 22 227 47 259 56 l57 17 -7 107
c-9 134 8 350 40 506 83 410 293 784 717 1275 73 85 194 225 268 311 154 178
235 279 223 278 -4 0 -25 -11 -45 -24z"/>
</g>
</svg>
